<svg width="313" height="43" xmlns="http://www.w3.org/2000/svg" xmlns:xlink="http://www.w3.org/1999/xlink" xml:space="preserve" overflow="hidden"><g transform="translate(-64 -54)"><path d="M42.9206 12.5262 49.6524 12.5262 39.8648 41.9361 32.1466 41.9361 24.815 19.7336 17.4834 41.9361 9.91523 41.9361 0.127559 12.5262 7.0126 12.5262 13.9609 34.8743 21.2459 12.5262 28.5775 12.5262 35.9556 34.9969 42.9206 12.5262Z" fill="#FFFFFF" transform="matrix(1.00401 0 0 1 64 54)"/><path d="M78.5123 29.5956 56.6841 29.5956C56.8858 31.1116 57.4578 32.5554 58.3504 33.8008 59.1465 34.8885 60.2183 35.7469 61.4562 36.2895 62.7193 36.8279 64.0811 37.0986 65.4552 37.0847 66.9791 37.0783 68.4901 36.8036 69.9177 36.273 71.3974 35.7365 72.7797 34.9641 74.01 33.9864L77.2191 38.5593C75.5845 39.9862 73.6783 41.0726 71.614 41.754 69.4908 42.4148 67.2767 42.7414 65.052 42.7215 62.3146 42.7727 59.6116 42.1112 57.2106 40.8029 54.9388 39.5379 53.0791 37.6519 51.852 35.3681 50.5655 33.0265 49.9224 30.3202 49.9224 27.2494 49.868 24.4509 50.5101 21.6823 51.7919 19.1903 52.9706 16.9157 54.7744 15.0207 56.994 13.7258 59.3232 12.3954 61.9731 11.7207 64.6587 11.774 67.2197 11.7253 69.7419 12.4022 71.9305 13.7258 74.0583 15.0448 75.7698 16.9328 76.8691 19.1737 78.0931 21.677 78.702 24.4334 78.6454 27.2163 78.6356 27.8161 78.5955 28.6114 78.5123 29.5956ZM72.0304 24.7144C71.6794 22.4212 70.8507 20.6406 69.5443 19.3725 68.2378 18.1045 66.5649 17.4693 64.5256 17.4671 62.3215 17.4671 60.5563 18.1177 59.23 19.4189 57.9036 20.7201 57.055 22.4875 56.6841 24.721L72.0304 24.7144Z" fill="#FFFFFF" transform="matrix(1.00401 0 0 1 64 54)"/><path d="M106.129 13.7523C108.375 15.083 110.218 16.9929 111.461 19.2797 112.749 21.7351 113.422 24.4635 113.422 27.2328 113.422 30.0021 112.749 32.7306 111.461 35.186 110.215 37.4837 108.361 39.3988 106.1 40.7248 103.839 42.0505 101.256 42.7363 98.6309 42.7082 96.7908 42.7439 94.9671 42.3607 93.2989 41.5883 91.7664 40.8509 90.4243 39.7741 89.3764 38.4401L89.3764 41.9395 82.928 41.9395 82.928 0 89.3796 0 89.3796 16.0222C90.4277 14.6882 91.7696 13.6112 93.3021 12.8741 94.9702 12.1014 96.7943 11.7183 98.6341 11.754 101.269 11.7258 103.862 12.4169 106.129 13.7523ZM102.593 35.3979C103.936 34.5777 105.018 33.3952 105.713 31.9882 106.423 30.5019 106.792 28.8768 106.792 27.2311 106.792 25.5854 106.423 23.9603 105.713 22.4742 105.017 21.0676 103.936 19.8854 102.593 19.0643 101.171 18.2444 99.5573 17.8102 97.9135 17.8049 96.2694 17.7997 94.6531 18.2237 93.2256 19.0345 91.8812 19.8479 90.7907 21.017 90.0761 22.4112 89.3331 23.9105 88.9464 25.5596 88.9464 27.2311 88.9464 28.9026 89.3331 30.5517 90.0761 32.0511 90.7907 33.4451 91.8812 34.6144 93.2256 35.4279 94.6531 36.2386 96.2694 36.6626 97.9135 36.6572 99.5573 36.6521 101.171 36.2177 102.593 35.3979Z" fill="#FFFFFF" transform="matrix(1.00401 0 0 1 64 54)"/><path d="M145.416 29.5956 123.588 29.5956C123.79 31.1115 124.362 32.5554 125.254 33.8008 126.049 34.8879 127.12 35.7466 128.357 36.2895 129.62 36.827 130.982 37.0979 132.356 37.0847 133.877 37.0777 135.386 36.8026 136.811 36.2727 138.29 35.7365 139.671 34.9641 140.9 33.9864L144.113 38.5593C142.48 39.9853 140.576 41.0713 138.514 41.754 136.391 42.4154 134.177 42.742 131.952 42.7215 129.215 42.7724 126.512 42.1109 124.111 40.8029 121.841 39.5366 119.983 37.6509 118.756 35.3681 117.469 33.0265 116.826 30.3202 116.826 27.2494 116.772 24.4513 117.413 21.6832 118.692 19.1902 119.872 16.9163 121.676 15.0215 123.894 13.7258 126.224 12.3955 128.874 11.7208 131.559 11.774 134.112 11.7244 136.626 12.3954 138.811 13.7092 140.939 15.0282 142.65 16.9162 143.75 19.1571 144.972 21.6609 145.581 24.417 145.526 27.1997 145.539 27.8161 145.496 28.6114 145.416 29.5956ZM138.931 24.7143C138.58 22.4212 137.751 20.6406 136.445 19.3725 135.138 18.1044 133.472 17.4693 131.446 17.4671 129.242 17.4671 127.477 18.1177 126.151 19.4189 124.824 20.7201 123.975 22.4875 123.604 24.721L138.931 24.7143Z" fill="#FFFFFF" transform="matrix(1.00401 0 0 1 64 54)"/><path d="M176.196 41.9361 168.261 41.9361 160.759 31.7131 153.351 41.9361 145.786 41.9361 156.93 26.9246 145.97 12.5262 153.904 12.5262 161.139 22.3516 168.364 12.5262 175.989 12.5262 165.062 26.8616 176.196 41.9361Z" fill="#FFFFFF" transform="matrix(1.00401 0 0 1 64 54)"/><path d="M195.916 11.7738C191.554 11.7738 187.858 13.2684 184.919 16.2176 181.979 19.1669 180.503 22.8751 180.503 27.2493 180.503 31.6233 181.986 35.3315 184.919 38.2776 187.852 41.2234 191.547 42.7246 195.916 42.7246 200.285 42.7246 203.954 41.23 206.913 38.2808 209.873 35.3318 211.383 31.6233 211.383 27.2493 211.383 22.8751 209.88 19.1603 206.913 16.2143 203.948 13.2683 200.252 11.7738 195.916 11.7738ZM195.916 40.0172C192.274 40.0172 189.328 38.8309 186.918 36.372 184.509 33.9134 183.309 30.9375 183.309 27.2327 183.309 23.5279 184.489 20.5521 186.918 18.0866 189.348 15.6212 192.294 14.4415 195.916 14.4415 199.539 14.4415 202.515 15.6377 204.961 18.0866 207.407 20.5355 208.6 23.5411 208.6 27.2294 208.6 30.9176 207.41 33.9232 204.964 36.3688 202.518 38.8145 199.555 40.0172 195.916 40.0172Z" fill="#FFFFFF" transform="matrix(1.00401 0 0 1 64 54)"/><path d="M240.815 15.1706C238.416 12.9172 235.15 11.7739 231.081 11.7739 228.361 11.7238 225.689 12.4931 223.416 13.9809 222.202 14.7816 221.137 15.785 220.267 16.9468L220.267 11.9761 217.514 11.9761 217.514 42.4631 220.267 42.4631 220.267 24.8535C220.267 21.8711 221.267 19.4354 223.316 17.4306 225.366 15.4257 227.882 14.4482 230.981 14.4482 234.407 14.4482 237.08 15.3628 238.922 17.1655 240.765 18.9682 241.695 21.4138 241.695 24.5718L241.695 42.4663 244.454 42.4663 244.454 24.5718C244.454 20.6019 243.231 17.4372 240.815 15.1706Z" fill="#FFFFFF" transform="matrix(1.00401 0 0 1 64 54)"/><path d="M279.708 26.9511C279.621 22.6431 278.198 18.998 275.479 16.1216 274.204 14.7288 272.646 13.621 270.908 12.8715 269.17 12.122 267.292 11.7479 265.398 11.7739 263.394 11.7394 261.404 12.1162 259.553 12.8808 257.702 13.6454 256.03 14.7813 254.64 16.2177 251.721 19.1636 250.241 22.885 250.241 27.2791 250.241 31.7327 251.681 35.4608 254.527 38.3538 257.373 41.2468 261.045 42.7246 265.428 42.7246 270.427 42.7246 274.642 40.8061 277.942 37.0249L278.425 36.4716 276.622 34.5132 276.009 35.1759C274.708 36.6509 273.142 37.8704 271.39 38.7715 269.547 39.634 267.527 40.0564 265.491 40.0042 261.869 40.0042 258.963 38.8575 256.6 36.4981 254.444 34.3475 253.267 31.5838 253.054 28.2766L279.445 28.2766 279.631 27.7066C279.697 27.4616 279.722 27.2074 279.705 26.9544L279.708 26.9511ZM253.118 25.6454C253.367 22.6956 254.678 19.9342 256.81 17.868 257.927 16.7498 259.262 15.8698 260.733 15.2818 262.204 14.6939 263.78 14.4102 265.365 14.4481 266.865 14.425 268.353 14.7174 269.731 15.3062 271.109 15.895 272.347 16.7668 273.363 17.8646 275.402 19.9726 276.63 22.7272 276.832 25.6454L253.118 25.6454Z" fill="#FFFFFF" transform="matrix(1.00401 0 0 1 64 54)"/><path d="M311.381 15.0242 309.624 15.0242C309.45 14.4601 309.132 14.0261 308.669 13.7223 308.206 13.4041 307.642 13.245 306.976 13.245 304.532 13.245 303.237 15.422 303.093 19.776 303.527 19.0094 304.127 18.4235 304.893 18.0185 305.544 17.6858 306.239 17.5194 306.976 17.5194 308.51 17.5194 309.718 18.0474 310.6 19.1034 311.367 20.0147 311.75 21.1791 311.75 22.5967 311.75 24.318 311.179 25.656 310.036 26.6107 309.124 27.3774 308.032 27.7607 306.759 27.7607 304.865 27.7607 303.476 27.0158 302.594 25.5259 301.87 24.2963 301.509 22.6111 301.509 20.4703 301.509 17.1578 302.145 14.8 303.418 13.3969 304.315 12.4132 305.508 11.9214 306.998 11.9214 308.155 11.9214 309.146 12.2397 309.971 12.8762 310.694 13.4258 311.164 14.1418 311.381 15.0242ZM306.716 18.8864C305.617 18.8864 304.756 19.2697 304.134 20.0364 303.584 20.6728 303.31 21.4829 303.31 22.4665 303.31 23.6382 303.635 24.5929 304.286 25.3306 304.922 26.0394 305.754 26.3938 306.781 26.3938 307.779 26.3938 308.596 26.0321 309.233 25.3089 309.826 24.629 310.123 23.7611 310.123 22.7052 310.123 21.4322 309.768 20.4559 309.059 19.776 308.452 19.1829 307.671 18.8864 306.716 18.8864Z" fill="#FFFFFF" transform="matrix(1.00401 0 0 1 64 54)"/><path d="M291.015 16.0657 289.301 16.0657C289.49 14.7349 290.104 13.6934 291.146 12.9412 292.057 12.2614 293.164 11.9214 294.466 11.9214 295.941 11.9214 297.127 12.3554 298.024 13.2233 298.834 13.99 299.239 14.9663 299.239 16.1525 299.239 17.194 298.942 18.1631 298.349 19.06 297.887 19.7977 297.047 20.7524 295.832 21.9241L291.732 25.9381 299.196 25.9381 299.196 27.4353 289.562 27.4353 289.562 25.9381 294.878 20.6873C295.919 19.6603 296.628 18.8358 297.004 18.2138 297.395 17.5773 297.59 16.8975 297.59 16.1742 297.59 15.234 297.272 14.5035 296.635 13.9827 296.071 13.5198 295.333 13.2884 294.422 13.2884 293.424 13.2884 292.614 13.5705 291.992 14.1346 291.442 14.6264 291.117 15.2701 291.015 16.0657Z" fill="#FFFFFF" transform="matrix(1.00401 0 0 1 64 54)"/></g></svg>